<?xml version="1.0" encoding="UTF-8"?>
<svg width="15pt" height="15pt" version="1.1" viewBox="0 0 700 700" xmlns="http://www.w3.org/2000/svg" xmlns:xlink="http://www.w3.org/1999/xlink">
    <g>
        <path d="m165.76 95.762c-36.578 36.461-61.512 82.961-71.648 133.6-10.133 50.645-5.0156 103.16 14.715 150.89 19.727 47.73 53.176 88.535 96.105 117.25 42.934 28.711 93.418 44.035 145.07 44.035s102.13-15.324 145.07-44.035c42.93-28.711 76.379-69.516 96.105-117.25 19.73-47.73 24.848-100.24 14.715-150.89-10.137-50.641-35.07-97.141-71.648-133.6-48.914-48.766-115.17-76.148-184.24-76.148s-135.32 27.383-184.24 76.148zm318.64 71.117-60.477 176.4c-1.6719 5.0234-5.6172 8.9688-10.641 10.641l-176.4 60.477-5.6016 1.1211h0.003906c-5.4258-0.050781-10.492-2.7188-13.605-7.1641-3.1133-4.4453-3.8828-10.121-2.0742-15.234l60.477-176.4c1.6719-5.0234 5.6172-8.9688 10.641-10.641l176.4-60.477c3.9727-1.3398 8.3008-1.1406 12.137 0.55078 3.8359 1.6914 6.8984 4.7539 8.5898 8.5898 1.6914 3.8359 1.8906 8.1641 0.55078 12.137z"/>
        <path d="m350 234.64c-14.105-0.097656-27.457 6.375-36.117 17.512-8.6602 11.137-11.645 25.668-8.0781 39.316 3.5664 13.648 13.281 24.859 26.285 30.336 13 5.4727 27.809 4.5859 40.066-2.3984 12.254-6.9883 20.562-19.277 22.477-33.254 1.9141-13.977-2.7852-28.051-12.711-38.074-8.4102-8.5742-19.91-13.418-31.922-13.438z"/>
    </g>
</svg>
